<?xml version="1.0" encoding="UTF-8"?>
<svg width="90px" height="71px" viewBox="0 0 90 71" version="1.1" xmlns="http://www.w3.org/2000/svg" xmlns:xlink="http://www.w3.org/1999/xlink">
    <title>Group 42</title>
    <defs>
        <polygon id="path-1" points="0.70225 0.066 7.86891667 0.066 7.86891667 12 0.70225 12"></polygon>
    </defs>
    <g id="Symbols" stroke="none" stroke-width="1" fill="none" fill-rule="evenodd">
        <g id="Header-1" transform="translate(-227.000000, -9.000000)">
            <g id="Group-42" transform="translate(227.000000, 9.500000)">
                <g id="Group-8" transform="translate(0.000000, 57.500000)">
                    <path d="M6.75433333,8.78864 L1.70266667,8.78864 C1.74433333,9.34464 1.93433333,9.78704 2.266,10.11584 C2.60016667,10.44064 3.02683333,10.60304 3.54766667,10.60304 C3.9535,10.60304 4.28766667,10.51024 4.5535,10.32464 C4.81433333,10.13824 5.11183333,9.79664 5.44433333,9.29584 L6.82016667,10.03264 C6.60766667,10.38064 6.38266667,10.67824 6.146,10.92624 C5.90933333,11.17424 5.65683333,11.37744 5.38683333,11.53824 C5.11683333,11.69664 4.8235,11.81424 4.51183333,11.88864 C4.196,11.96304 3.85683333,11.99984 3.49016667,11.99984 C2.43766667,11.99984 1.5935,11.67504 0.956,11.02704 C0.319333333,10.37344 0.001,9.50704 0.001,8.42704 C0.001,7.35664 0.309333333,6.49024 0.926833333,5.82784 C1.54933333,5.17504 2.37516667,4.84784 3.4035,4.84784 C4.441,4.84784 5.261,5.16544 5.86433333,5.79984 C6.46266667,6.43024 6.76266667,7.30384 6.76266667,8.42064 L6.75433333,8.78864 Z M5.08266667,7.51024 C4.856,6.67584 4.3085,6.25904 3.44016667,6.25904 C3.24016667,6.25904 3.056,6.28864 2.88183333,6.34544 C2.7085,6.40384 2.55016667,6.48784 2.40683333,6.59584 C2.266,6.70544 2.1435,6.83584 2.04183333,6.98864 C1.941,7.14144 1.8635,7.31504 1.81016667,7.51024 L5.08266667,7.51024 Z" id="Fill-1" fill="#CB1517"></path>
                    <g id="Group-5" transform="translate(7.500000, 0.000000)">
                        <mask id="mask-2" fill="white">
                            <use xlink:href="#path-1"></use>
                        </mask>
                        <g id="Clip-4"></g>
                        <path d="M6.23308333,0.066 L7.86891667,0.066 L7.86891667,11.8052 L6.23308333,11.8052 L6.23308333,11.0956 C5.59141667,11.698 4.86558333,12.0004 4.05475,12.0004 C3.08808333,12.0004 2.28891667,11.6612 1.65141667,10.9844 C1.01725,10.294 0.70225,9.4332 0.70225,8.4004 C0.70225,7.3892 1.01725,6.5468 1.65141667,5.87 C2.27725,5.1884 3.06725,4.8484 4.01808333,4.8484 C4.84308333,4.8484 5.58225,5.1732 6.23308333,5.8204 L6.23308333,0.066 Z M2.36725,8.4004 C2.36725,9.0484 2.54891667,9.5764 2.90975,9.9836 C3.28141667,10.3964 3.74891667,10.6028 4.31558333,10.6028 C4.91725,10.6028 5.40475,10.4036 5.77641667,10.0052 C6.14808333,9.5924 6.33475,9.0692 6.33475,8.4348 C6.33475,7.8004 6.14808333,7.2764 5.77641667,6.8636 C5.40475,6.4604 4.92391667,6.2588 4.32808333,6.2588 C3.76808333,6.2588 3.30225,6.4628 2.92558333,6.8708 C2.55225,7.2828 2.36725,7.7924 2.36725,8.4004 L2.36725,8.4004 Z" id="Fill-3" fill="#CB1517" mask="url(#mask-2)"></path>
                    </g>
                    <path d="M17.17875,2.22072 C17.17875,1.94712 17.2820833,1.71112 17.49125,1.51192 C17.6970833,1.31272 17.94625,1.21272 18.23625,1.21272 C18.5304167,1.21272 18.78125,1.31272 18.98875,1.51192 C19.19625,1.70632 19.2995833,1.94552 19.2995833,2.22792 C19.2995833,2.51032 19.19625,2.75112 18.98875,2.95032 C18.78625,3.14952 18.5370833,3.24952 18.24375,3.24952 C17.9479167,3.24952 17.6970833,3.14952 17.49125,2.95032 C17.2820833,2.75112 17.17875,2.50792 17.17875,2.22072 L17.17875,2.22072 Z M17.4245833,11.80472 L19.0545833,11.80472 L19.0545833,5.03512 L17.4245833,5.03512 L17.4245833,11.80472 Z" id="Fill-6" fill="#CB1517"></path>
                </g>
                <polygon id="Fill-9" fill="#CB1517" points="20.7740139 59.5 20.7740139 62.1826948 20 62.1826948 20 63.7601401 20.7740139 63.7601401 20.7740139 69.5 22.5893271 69.5 22.5893271 63.7601401 24 63.7601401 24 62.1826948 22.5893271 62.1826948 22.5893271 59.5"></polygon>
                <g id="Group-38" transform="translate(0.000000, 0.500000)" fill="#CB1517">
                    <path d="M24.4865455,65.2742464 C24.4865455,64.2704607 24.8432727,63.416175 25.56,62.7130321 C26.2742727,62.0082464 27.1464545,61.656675 28.1765455,61.656675 C29.2082727,61.656675 30.0845455,62.0107107 30.8045455,62.720425 C31.5155455,63.4293179 31.8722727,64.2992107 31.8722727,65.330925 C31.8722727,66.3741393 31.5139091,67.2464964 30.798,67.9512821 C30.078,68.6494964 29.1935455,68.999425 28.1479091,68.999425 C27.1088182,68.999425 26.2399091,68.642925 25.5387273,67.9291036 C24.8367273,67.2251393 24.4865455,66.3404607 24.4865455,65.2742464 M26.1212727,65.3029964 C26.1212727,65.997925 26.3061818,66.5474607 26.676,66.9516036 C27.0548182,67.360675 27.5539091,67.5652107 28.1765455,67.5652107 C28.8016364,67.5652107 29.3007273,67.3623179 29.6754545,66.9589964 C30.0493636,66.5548536 30.2359091,66.0135321 30.2359091,65.3383179 C30.2359091,64.663925 30.0493636,64.123425 29.6754545,63.7184607 C29.2958182,63.3093893 28.7959091,63.1048536 28.1765455,63.1048536 C27.5637273,63.1048536 27.0687273,63.3093893 26.6899091,63.7184607 C26.3102727,64.1275321 26.1212727,64.6557107 26.1212727,65.3029964" id="Fill-10"></path>
                    <path d="M33.5628,61.8489714 L35.1631636,61.8489714 L35.1631636,62.4699714 C35.4552545,62.1602929 35.7154364,61.9491857 35.9437091,61.8350071 C36.1752545,61.7159 36.4501636,61.6567571 36.7676182,61.6567571 C37.1898,61.6567571 37.6299818,61.7947571 38.0914364,62.0707571 L37.3583455,63.5411143 C37.0556182,63.3209714 36.7586182,63.2117214 36.4706182,63.2117214 C35.5976182,63.2117214 35.1631636,63.8729714 35.1631636,65.1954714 L35.1631636,68.7999 L33.5628,68.7999 L33.5628,61.8489714 Z" id="Fill-12"></path>
                    <path d="M44.0118,61.8489714 L45.6178909,61.8489714 L45.6178909,68.7999 L44.0118,68.7999 L44.0118,68.0712929 C43.3531636,68.6898286 42.6438,68.9995071 41.8853455,68.9995071 C40.9280727,68.9995071 40.1385273,68.6520429 39.5126182,67.9579357 C38.8908,67.2490429 38.5815273,66.3635429 38.5815273,65.3030786 C38.5815273,64.2615071 38.8908,63.3924357 39.5126182,62.6983286 C40.1319818,62.0034 40.9092545,61.6567571 41.8444364,61.6567571 C42.6487091,61.6567571 43.3719818,61.9894357 44.0118,62.6556143 L44.0118,61.8489714 Z M40.2162545,65.3030786 C40.2162545,65.9700786 40.3946182,66.5122214 40.7480727,66.93115 C41.1138,67.3533643 41.5728,67.5652929 42.1291636,67.5652929 C42.7198909,67.5652929 43.1985273,67.3607571 43.5634364,66.9516857 C43.9275273,66.5278286 44.1116182,65.9906143 44.1116182,65.3384 C44.1116182,64.6870071 43.9275273,64.1489714 43.5634364,63.7259357 C43.1985273,63.3119357 42.7264364,63.1049357 42.1414364,63.1049357 C41.5916182,63.1049357 41.1334364,63.3144 40.7644364,63.7325071 C40.3978909,64.1571857 40.2162545,64.6796143 40.2162545,65.3030786 L40.2162545,65.3030786 Z" id="Fill-14"></path>
                    <path d="M51.6599182,63.0338 L50.3377364,63.7402286 C50.1291,63.3122643 49.8697364,63.0978714 49.5629182,63.0978714 C49.4156455,63.0978714 49.2904636,63.1471571 49.1865545,63.2449071 C49.0826455,63.3418357 49.0302818,63.4666929 49.0302818,63.6186571 C49.0302818,63.8856214 49.3379182,64.1493 49.9540091,64.4113357 C50.8024636,64.7776929 51.3719182,65.1153 51.6664636,65.4241571 C51.9593727,65.7338357 52.1082818,66.1503 52.1082818,66.67355 C52.1082818,67.3438357 51.8603727,67.9056929 51.3694636,68.3574786 C50.8891909,68.7854429 50.3115545,68.9998357 49.6341,68.9998357 C48.4722818,68.9998357 47.6508273,68.4314071 47.1681,67.29455 L48.5328273,66.6587643 C48.7218273,66.9922643 48.8674636,67.2033714 48.9656455,67.29455 C49.1587364,67.4744429 49.3919182,67.5656214 49.6635545,67.5656214 C50.2035545,67.5656214 50.4719182,67.31755 50.4719182,66.82305 C50.4719182,66.5380143 50.2632818,66.27105 49.8468273,66.0238 C49.6856455,65.9433 49.5244636,65.8644429 49.3624636,65.7888714 C49.2021,65.7124786 49.0392818,65.6336214 48.8740091,65.5531214 C48.4084636,65.3247643 48.0820091,65.0964071 47.8930091,64.86805 C47.6508273,64.5772643 47.5313727,64.2043357 47.5313727,63.7476214 C47.5313727,63.14305 47.7367364,62.6436214 48.1482818,62.2485143 C48.5704636,61.8542286 49.0826455,61.6562643 49.6840091,61.6562643 C50.5701,61.6562643 51.2287364,62.1154429 51.6599182,63.0338" id="Fill-16"></path>
                    <path d="M3.41672727,0.751196429 L3.41672727,13.3732679 C4.78309091,11.9505536 6.33190909,11.2391964 8.06318182,11.2391964 C10.0570909,11.2391964 11.7171818,11.985875 13.0434545,13.4800536 C14.3689091,14.9635536 15.0324545,16.8134107 15.0324545,19.0288036 C15.0324545,21.3156607 14.3648182,23.2057679 13.0279091,24.699125 C11.7016364,26.1834464 10.0268182,26.9260179 8.00181818,26.9260179 C6.29181818,26.9260179 4.76345455,26.2647679 3.41672727,24.9439107 L3.41672727,26.498875 L0,26.498875 L0,0.751196429 L3.41672727,0.751196429 Z M11.5404545,19.1815893 C11.5404545,17.758875 11.1550909,16.5998393 10.386,15.706125 C9.60709091,14.7910536 8.63018182,14.3335179 7.45609091,14.3335179 C6.20018182,14.3335179 5.17827273,14.7754464 4.38872727,15.6593036 C3.609,16.534125 3.21954545,17.672625 3.21954545,19.0748036 C3.21954545,20.5172321 3.60409091,21.6713393 4.37318182,22.5354821 C5.14227273,23.4193393 6.15518182,23.8612679 7.41027273,23.8612679 C8.59418182,23.8612679 9.57681818,23.4193393 10.3557273,22.5354821 C11.1452727,21.6409464 11.5404545,20.5221607 11.5404545,19.1815893 L11.5404545,19.1815893 Z" id="Fill-18"></path>
                    <path d="M30.2066182,11.6504036 L33.6380727,11.6504036 L33.6380727,26.4985464 L30.2066182,26.4985464 L30.2066182,24.9444036 C28.7993455,26.2644393 27.2865273,26.9248679 25.6665273,26.9248679 C23.6218909,26.9248679 21.9315273,26.1831179 20.5946182,24.6996179 C19.2691636,23.1849036 18.6056182,21.2947964 18.6056182,19.028475 C18.6056182,16.803225 19.2691636,14.9492607 20.5946182,13.4641179 C21.9208909,11.9806179 23.5809818,11.2388679 25.5748909,11.2388679 C27.2963455,11.2388679 28.8402545,11.950225 30.2066182,13.3737607 L30.2066182,11.6504036 Z M22.0984364,19.028475 C22.0984364,20.4511893 22.4780727,21.610225 23.2365273,22.5047607 C24.0162545,23.4091536 24.9980727,23.8609393 26.1828,23.8609393 C27.4477091,23.8609393 28.4704364,23.4239393 29.2501636,22.5507607 C30.0290727,21.6455464 30.4193455,20.4980107 30.4193455,19.1048679 C30.4193455,17.7125464 30.0290727,16.5641893 29.2501636,15.6597964 C28.4704364,14.7759393 27.4583455,14.3340107 26.2130727,14.3340107 C25.0389818,14.3340107 24.0571636,14.7816893 23.2676182,15.6745821 C22.4878909,16.578975 22.0984364,17.6977607 22.0984364,19.028475 L22.0984364,19.028475 Z" id="Fill-20"></path>
                    <path d="M38.3580818,11.6504036 L41.7895364,11.6504036 L41.7895364,13.0221893 C42.9840818,11.8344036 44.3308091,11.2388679 45.8289,11.2388679 C47.5495364,11.2388679 48.8905364,11.7826536 49.8527182,12.870225 C50.6823545,13.7951536 51.0971727,15.3041179 51.0971727,17.3979393 L51.0971727,26.4985464 L47.6657182,26.4985464 L47.6657182,18.2054036 C47.6657182,16.7416179 47.4636273,15.7312607 47.0586273,15.1718679 C46.6634455,14.6034393 45.9450818,14.3184036 44.9027182,14.3184036 C43.7687182,14.3184036 42.9636273,14.6946179 42.4882636,15.446225 C42.0227182,16.187975 41.7895364,17.4850107 41.7895364,19.3340464 L41.7895364,26.4985464 L38.3580818,26.4985464 L38.3580818,11.6504036 Z" id="Fill-22"></path>
                    <path d="M67.4178545,0.751196429 L70.8493091,0.751196429 L70.8493091,26.498875 L67.4178545,26.498875 L67.4178545,24.9439107 C66.0711273,26.2647679 64.5484909,26.9260179 62.8474909,26.9260179 C60.8224909,26.9260179 59.1435818,26.1834464 57.8066727,24.699125 C56.4804,23.1860536 55.8176727,21.295125 55.8176727,19.0288036 C55.8176727,16.8134107 56.4804,14.9635536 57.8066727,13.4800536 C59.1223091,11.985875 60.7774909,11.2391964 62.7714,11.2391964 C64.5026727,11.2391964 66.0514909,11.9505536 67.4178545,13.3732679 L67.4178545,0.751196429 Z M59.3096727,19.0288036 C59.3096727,20.4506964 59.6901273,21.6105536 60.4485818,22.5042679 C61.2291273,23.4094821 62.2109455,23.8612679 63.3948545,23.8612679 C64.6597636,23.8612679 65.6816727,23.4242679 66.4614,22.5502679 C67.2411273,21.645875 67.6314,20.4975179 67.6314,19.1051964 C67.6314,17.7120536 67.2411273,16.5645179 66.4614,15.6593036 C65.6816727,14.7754464 64.6704,14.3335179 63.4243091,14.3335179 C62.2510364,14.3335179 61.2684,14.7811964 60.4796727,15.6749107 C59.6991273,16.580125 59.3096727,17.6980893 59.3096727,19.0288036 L59.3096727,19.0288036 Z" id="Fill-24"></path>
                    <path d="M86.0243727,11.6504036 L89.4550091,11.6504036 L89.4550091,26.4985464 L86.0243727,26.4985464 L86.0243727,24.9444036 C84.6162818,26.2644393 83.1042818,26.9248679 81.4842818,26.9248679 C79.4396455,26.9248679 77.7492818,26.1831179 76.4123727,24.6996179 C75.0869182,23.1849036 74.4225545,21.2947964 74.4225545,19.028475 C74.4225545,16.803225 75.0869182,14.9492607 76.4123727,13.4641179 C77.7386455,11.9806179 79.3979182,11.2388679 81.3926455,11.2388679 C83.1132818,11.2388679 84.6580091,11.950225 86.0243727,13.3737607 L86.0243727,11.6504036 Z M77.9161909,19.028475 C77.9161909,20.4511893 78.2958273,21.610225 79.0534636,22.5047607 C79.8340091,23.4091536 80.8158273,23.8609393 82.0005545,23.8609393 C83.2654636,23.8609393 84.2881909,23.4239393 85.0679182,22.5507607 C85.8468273,21.6455464 86.2371,20.4980107 86.2371,19.1048679 C86.2371,17.7125464 85.8468273,16.5641893 85.0679182,15.6597964 C84.2881909,14.7759393 83.2761,14.3340107 82.0308273,14.3340107 C80.8567364,14.3340107 79.8741,14.7816893 79.0853727,15.6745821 C78.3048273,16.578975 77.9161909,17.6977607 77.9161909,19.028475 L77.9161909,19.028475 Z" id="Fill-26"></path>
                    <path d="M3.41672727,54.7441071 L0,54.7441071 L0,31.8163929 L3.41672727,31.8163929 L3.41672727,33.4321429 C4.76345455,32.0808929 6.29181818,31.4048571 8.00181818,31.4048571 C10.0366364,31.4048571 11.7122727,32.1572857 13.0279091,33.6613214 C14.3648182,35.1555 15.0324545,37.0406786 15.0324545,39.3168571 C15.0324545,41.5421071 14.3689091,43.3977143 13.0434545,44.8812143 C11.727,46.3548571 10.0669091,47.0916786 8.06318182,47.0916786 C6.33190909,47.0916786 4.78309091,46.3951071 3.41672727,45.0027857 L3.41672727,54.7441071 Z M11.5404545,39.3324643 C11.5404545,37.9089286 11.1550909,36.7507143 10.386,35.8561786 C9.60709091,34.9517857 8.62445455,34.4991786 7.44054545,34.4991786 C6.18545455,34.4991786 5.16763636,34.9361786 4.38872727,35.8101786 C3.609,36.6841786 3.21954545,37.8333571 3.21954545,39.2560714 C3.21954545,40.6483929 3.609,41.79675 4.38872727,42.7011429 C5.15781818,43.585 6.16990909,44.02775 7.425,44.02775 C8.60972727,44.02775 9.58663636,43.5800714 10.3557273,42.6855357 C11.1452727,41.7918214 11.5404545,40.6738571 11.5404545,39.3324643 L11.5404545,39.3324643 Z" id="Fill-28"></path>
                    <path d="M18.6462,31.8171321 L22.0629273,31.8171321 L22.0629273,33.1429179 C22.6904727,32.4824893 23.2468364,32.0307036 23.7328364,31.7867393 C24.2286545,31.531275 24.8161091,31.4055964 25.4943818,31.4055964 C26.3952,31.4055964 27.3369273,31.6996679 28.3187455,32.2886321 L26.7543818,35.4289536 C26.1063818,34.9615607 25.4739273,34.728275 24.8562,34.728275 C22.9940182,34.728275 22.0629273,36.1411321 22.0629273,38.966025 L22.0629273,46.6644536 L18.6462,46.6644536 L18.6462,31.8171321 Z" id="Fill-30"></path>
                    <path d="M29.3053091,39.1337607 C29.3053091,36.9898321 30.0694909,35.1654393 31.5978545,33.6614036 C33.1262182,32.1573679 34.9892182,31.4049393 37.1860364,31.4049393 C39.3926727,31.4049393 41.2654909,32.1622964 42.8044909,33.6761893 C44.3222182,35.1909036 45.0814909,37.0506179 45.0814909,39.2561536 C45.0814909,41.4814036 44.3173091,43.3460464 42.7889455,44.8500821 C41.2499455,46.3442607 39.3624,47.0917607 37.1254909,47.0917607 C34.9082182,47.0917607 33.0509455,46.329475 31.5528545,44.8049036 C30.0547636,43.3008679 29.3053091,41.4099393 29.3053091,39.1337607 M32.7981273,39.1945464 C32.7981273,40.6788679 33.1924909,41.8526893 33.9820364,42.7160107 C34.7920364,43.5908321 35.8597636,44.0278321 37.1860364,44.0278321 C38.5221273,44.0278321 39.5898545,43.5949393 40.3900364,42.7316179 C41.1894,41.867475 41.5894909,40.7141893 41.5894909,39.2709393 C41.5894909,37.8276893 41.1894,36.6744036 40.3900364,35.8102607 C39.5800364,34.9362607 38.5114909,34.4992607 37.1860364,34.4992607 C35.8802182,34.4992607 34.8223091,34.9362607 34.0123091,35.8102607 C33.2023091,36.6842607 32.7981273,37.8129036 32.7981273,39.1945464" id="Fill-32"></path>
                    <path d="M52.1121273,54.7441071 L48.6962182,54.7441071 L48.6962182,31.8163929 L52.1121273,31.8163929 L52.1121273,33.4321429 C53.4588545,32.0808929 54.9872182,31.4048571 56.6972182,31.4048571 C58.7320364,31.4048571 60.4076727,32.1572857 61.7241273,33.6613214 C63.0594,35.1555 63.7270364,37.0406786 63.7270364,39.3168571 C63.7270364,41.5421071 63.0651273,43.3977143 61.7388545,44.8812143 C60.4232182,46.3548571 58.7623091,47.0916786 56.7585818,47.0916786 C55.0273091,47.0916786 53.4784909,46.3951071 52.1121273,45.0027857 L52.1121273,54.7441071 Z M60.2358545,39.3324643 C60.2358545,37.9089286 59.8504909,36.7507143 59.0814,35.8561786 C58.3016727,34.9517857 57.3206727,34.4991786 56.1359455,34.4991786 C54.8808545,34.4991786 53.8638545,34.9361786 53.0833091,35.8101786 C52.3035818,36.6841786 51.9149455,37.8333571 51.9149455,39.2560714 C51.9149455,40.6483929 52.3035818,41.79675 53.0833091,42.7011429 C53.8532182,43.585 54.8653091,44.02775 56.1195818,44.02775 C57.3051273,44.02775 58.2820364,43.5800714 59.0503091,42.6855357 C59.8398545,41.7918214 60.2358545,40.6738571 60.2358545,39.3324643 L60.2358545,39.3324643 Z" id="Fill-34"></path>
                    <path d="M85.9875545,31.8171321 L89.4190091,31.8171321 L89.4190091,46.6644536 L85.9875545,46.6644536 L85.9875545,45.1103107 C84.5802818,46.4303464 83.0682818,47.0915964 81.4474636,47.0915964 C79.4028273,47.0915964 77.7132818,46.349025 76.3755545,44.8663464 C75.0501,43.3516321 74.3865545,41.4607036 74.3865545,39.1943821 C74.3865545,36.9691321 75.0501,35.1151679 76.3755545,33.6308464 C77.7018273,32.146525 79.3619182,31.4055964 81.3558273,31.4055964 C83.0772818,31.4055964 84.6211909,32.1161321 85.9875545,33.5396679 L85.9875545,31.8171321 Z M77.8793727,39.1943821 C77.8793727,40.6179179 78.2598273,41.7769536 79.0174636,42.6706679 C79.7980091,43.5742393 80.7790091,44.0268464 81.9637364,44.0268464 C83.2286455,44.0268464 84.2513727,43.5906679 85.0311,42.7166679 C85.8100091,41.812275 86.2002818,40.6639179 86.2002818,39.270775 C86.2002818,37.879275 85.8100091,36.7300964 85.0311,35.826525 C84.2513727,34.9418464 83.2401,34.4999179 81.9940091,34.4999179 C80.8207364,34.4999179 79.8381,34.9475964 79.0493727,35.8404893 C78.2688273,36.7457036 77.8793727,37.8628464 77.8793727,39.1943821 L77.8793727,39.1943821 Z" id="Fill-36"></path>
                </g>
                <polygon id="Fill-39" fill="#CB1517" points="68 46.5 71 46.5 71 31.5 68 31.5"></polygon>
                <path d="M67,51.4796409 C67,50.9429021 67.1961873,50.4787155 67.5870813,50.0870813 C67.9779752,49.695447 68.4473441,49.5 68.9929669,49.5 C69.548214,49.5 70.0220248,49.695447 70.4129187,50.0870813 C70.8052934,50.4690912 71,50.9384601 71,51.4937072 C71,52.0489543 70.8052934,52.5220248 70.4129187,52.9136591 C70.0309088,53.304553 69.5622802,53.5 69.0070331,53.5 C68.451786,53.5 67.9779752,53.304553 67.5870813,52.9136591 C67.1961873,52.5220248 67,52.043772 67,51.4796409" id="Fill-40" fill="#CB1517"></path>
            </g>
        </g>
    </g>
</svg>